<?xml version="1.0" standalone="no"?>
<!DOCTYPE svg PUBLIC "-//W3C//DTD SVG 20010904//EN"
 "http://www.w3.org/TR/2001/REC-SVG-20010904/DTD/svg10.dtd">
<svg version="1.0" xmlns="http://www.w3.org/2000/svg"
 width="192.000000pt" height="192.000000pt" viewBox="0 0 192.000000 192.000000"
 preserveAspectRatio="xMidYMid meet">
<metadata>
Created by potrace 1.14, written by Peter Selinger 2001-2017
</metadata>
<g transform="translate(0.000000,192.000000) scale(0.100000,-0.100000)"
fill="#000000" stroke="none">
<path d="M474 1892 c-16 -7 -39 -28 -51 -46 l-21 -32 -118 0 c-144 1 -185 -7
-224 -47 -64 -66 -71 -144 -30 -347 6 -30 13 -66 16 -80 70 -374 78 -398 152
-443 62 -39 70 -40 265 -42 103 -1 188 -4 190 -6 17 -26 89 -110 117 -138 19
-20 34 -38 34 -41 -1 -3 -4 -31 -8 -62 -7 -73 -24 -139 -50 -203 -37 -89 -35
-87 -112 -88 -103 0 -154 -40 -154 -121 0 -30 -4 -36 -21 -36 -24 0 -60 -18
-75 -38 -9 -12 -11 -44 -5 -88 3 -31 53 -34 594 -34 298 0 548 4 555 9 7 4 15
29 17 55 4 40 1 51 -20 72 -15 15 -36 24 -55 24 -27 0 -30 3 -30 34 0 89 -40
125 -141 125 -35 0 -70 0 -76 0 -30 2 -84 155 -99 276 -3 28 -8 53 -10 56 -2
3 20 30 49 60 29 30 68 74 88 98 l35 44 189 2 c206 1 226 6 288 64 45 41 61
83 81 216 5 29 56 314 64 355 3 19 7 71 7 116 0 104 -19 144 -89 188 -25 16
-52 19 -165 20 -128 1 -137 2 -145 22 -5 12 -25 32 -44 45 l-36 24 -466 1
c-377 0 -473 -2 -496 -14z m-98 -245 c1 -1 4 -38 5 -81 4 -138 50 -306 128
-466 21 -44 36 -82 32 -84 -4 -3 -48 -4 -97 -3 -101 3 -137 18 -156 65 -9 23
-37 144 -54 232 -3 14 -10 43 -16 65 -11 45 -16 68 -28 139 -12 78 6 119 60
133 30 8 118 8 126 0z m1326 -11 c47 -31 47 -62 -7 -302 -3 -12 -14 -66 -26
-120 -12 -55 -23 -109 -26 -121 -3 -11 -18 -34 -34 -49 -28 -27 -35 -29 -124
-30 -52 -1 -95 2 -95 7 0 5 15 41 34 81 59 124 100 241 112 318 2 14 7 36 10
49 3 13 5 59 5 102 0 87 -2 85 79 83 26 -1 58 -9 72 -18z"/>
</g>
</svg>
