<svg width="35" height="35" viewBox="0 0 35 35" fill="none" xmlns="http://www.w3.org/2000/svg">
<rect width="35" height="35" rx="17.5" fill="#621C99"/>
<path d="M19.2676 17.5C19.4874 17.2538 19.7568 17.0569 20.058 16.922C20.3593 16.7872 20.6856 16.7175 21.0156 16.7175C21.3457 16.7175 21.672 16.7872 21.9732 16.922C22.2745 17.0569 22.5438 17.2538 22.7637 17.5" stroke="white" stroke-width="1.5" stroke-linecap="round" stroke-linejoin="round"/>
<path d="M12.2363 17.5C12.4562 17.2538 12.7255 17.0569 13.0268 16.922C13.328 16.7872 13.6543 16.7175 13.9844 16.7175C14.3144 16.7175 14.6407 16.7872 14.942 16.922C15.2432 17.0569 15.5126 17.2538 15.7324 17.5" stroke="white" stroke-width="1.5" stroke-linecap="round" stroke-linejoin="round"/>
<path d="M20.0879 22.1875C19.3209 22.6969 18.4207 22.9686 17.5 22.9686C16.5793 22.9686 15.6791 22.6969 14.9121 22.1875" stroke="white" stroke-width="1.5" stroke-linecap="round" stroke-linejoin="round"/>
<path d="M26.0938 9.71681C26.0952 9.58939 26.0651 9.46359 26.0061 9.35064C25.9471 9.23769 25.8611 9.14111 25.7557 9.06954C25.6502 8.99796 25.5287 8.95362 25.402 8.94046C25.2752 8.92731 25.1472 8.94575 25.0293 8.99415C23.5547 9.56056 20.7129 10.4688 17.5 10.4688C14.2871 10.4688 11.4453 9.56056 9.97071 8.99415C9.85283 8.94575 9.7248 8.92731 9.59805 8.94046C9.4713 8.95362 9.34978 8.99796 9.24436 9.06954C9.13893 9.14111 9.05287 9.23769 8.99387 9.35064C8.93487 9.46359 8.90477 9.58939 8.90626 9.71681V15.1563C8.90626 22.0606 12.7539 27.6563 17.5 27.6563C22.2461 27.6563 26.0938 22.0606 26.0938 15.1563V9.71681Z" stroke="white" stroke-width="1.5" stroke-linecap="round" stroke-linejoin="round"/>
</svg>
