<svg width="20" height="21" viewBox="0 0 20 21" fill="none" xmlns="http://www.w3.org/2000/svg">
<path d="M16.875 17.375V9.52345C16.8736 9.43696 16.8549 9.35162 16.82 9.27245C16.7851 9.19329 16.7348 9.12191 16.6719 9.06252L10.4219 3.38283C10.3067 3.27742 10.1562 3.21896 10 3.21896C9.84384 3.21896 9.69334 3.27742 9.57813 3.38283L3.32813 9.06252C3.26376 9.12074 3.2124 9.19189 3.1774 9.27132C3.1424 9.35074 3.12454 9.43666 3.125 9.52345V17.375" stroke="white" stroke-width="1.5" stroke-linecap="round" stroke-linejoin="round"/>
<path d="M1.25 17.375H18.75" stroke="white" stroke-width="1.5" stroke-linecap="round" stroke-linejoin="round"/>
<path d="M11.875 17.375V13C11.875 12.8342 11.8092 12.6753 11.6919 12.5581C11.5747 12.4408 11.4158 12.375 11.25 12.375H8.75C8.58424 12.375 8.42527 12.4408 8.30806 12.5581C8.19085 12.6753 8.125 12.8342 8.125 13V17.375" stroke="white" stroke-width="1.5" stroke-linecap="round" stroke-linejoin="round"/>
</svg>
