<svg width="25" height="25" viewBox="0 0 25 25" fill="none" xmlns="http://www.w3.org/2000/svg">
<path d="M12.5 15.625C14.2259 15.625 15.625 14.2259 15.625 12.5C15.625 10.7741 14.2259 9.375 12.5 9.375C10.7741 9.375 9.375 10.7741 9.375 12.5C9.375 14.2259 10.7741 15.625 12.5 15.625Z" fill="white"/>
<path d="M16.7969 2.73438H8.20312C6.75272 2.73438 5.36172 3.31055 4.33613 4.33613C3.31055 5.36172 2.73438 6.75272 2.73438 8.20312V16.7969C2.73438 18.2473 3.31055 19.6383 4.33613 20.6639C5.36172 21.6895 6.75272 22.2656 8.20312 22.2656H16.7969C18.2473 22.2656 19.6383 21.6895 20.6639 20.6639C21.6895 19.6383 22.2656 18.2473 22.2656 16.7969V8.20312C22.2656 6.75272 21.6895 5.36172 20.6639 4.33613C19.6383 3.31055 18.2473 2.73438 16.7969 2.73438ZM12.5 17.1875C11.5729 17.1875 10.6666 16.9126 9.89576 16.3975C9.12491 15.8824 8.5241 15.1504 8.16931 14.2938C7.81453 13.4373 7.7217 12.4948 7.90257 11.5855C8.08344 10.6762 8.52988 9.841 9.18544 9.18544C9.841 8.52988 10.6762 8.08344 11.5855 7.90257C12.4948 7.7217 13.4373 7.81453 14.2938 8.16931C15.1504 8.5241 15.8824 9.12491 16.3975 9.89576C16.9126 10.6666 17.1875 11.5729 17.1875 12.5C17.1875 13.7432 16.6936 14.9355 15.8146 15.8146C14.9355 16.6936 13.7432 17.1875 12.5 17.1875ZM17.5781 8.59375C17.3463 8.59375 17.1198 8.52502 16.9271 8.39625C16.7344 8.26749 16.5842 8.08446 16.4955 7.87033C16.4068 7.6562 16.3835 7.42057 16.4288 7.19325C16.474 6.96593 16.5856 6.75712 16.7495 6.59323C16.9134 6.42934 17.1222 6.31773 17.3495 6.27252C17.5768 6.2273 17.8124 6.25051 18.0266 6.3392C18.2407 6.4279 18.4237 6.5781 18.5525 6.77082C18.6813 6.96353 18.75 7.1901 18.75 7.42188C18.75 7.73268 18.6265 8.03075 18.4068 8.25052C18.187 8.47028 17.8889 8.59375 17.5781 8.59375Z" fill="white"/>
</svg>
