<svg width="20" height="16" viewBox="0 0 20 16" fill="none" xmlns="http://www.w3.org/2000/svg">
<path d="M18.125 2H16.25V1.375C16.25 1.04348 16.1183 0.725537 15.8839 0.491116C15.6495 0.256696 15.3315 0.125 15 0.125H5C4.66848 0.125 4.35054 0.256696 4.11612 0.491116C3.8817 0.725537 3.75 1.04348 3.75 1.375V2H1.86719C1.53567 2 1.21772 2.1317 0.983304 2.36612C0.748884 2.60054 0.617188 2.91848 0.617188 3.25V4.5C0.617188 5.3288 0.946428 6.12366 1.53248 6.70971C2.11853 7.29576 2.91339 7.625 3.74219 7.625H4.05469C4.8125 9.96094 6.88281 11.7109 9.375 11.9688V13.875H7.5C7.33424 13.875 7.17527 13.9408 7.05806 14.0581C6.94085 14.1753 6.875 14.3342 6.875 14.5C6.875 14.6658 6.94085 14.8247 7.05806 14.9419C7.17527 15.0592 7.33424 15.125 7.5 15.125H12.5C12.6658 15.125 12.8247 15.0592 12.9419 14.9419C13.0592 14.8247 13.125 14.6658 13.125 14.5C13.125 14.3342 13.0592 14.1753 12.9419 14.0581C12.8247 13.9408 12.6658 13.875 12.5 13.875H10.625V11.9688C11.8428 11.8492 12.9984 11.3734 13.9474 10.6008C14.8964 9.8283 15.5968 8.79325 15.9609 7.625H16.25C17.0788 7.625 17.8737 7.29576 18.4597 6.70971C19.0458 6.12366 19.375 5.3288 19.375 4.5V3.25C19.375 2.91848 19.2433 2.60054 19.0089 2.36612C18.7745 2.1317 18.4565 2 18.125 2ZM3.74219 6.375C3.24491 6.375 2.76799 6.17746 2.41636 5.82583C2.06473 5.47419 1.86719 4.99728 1.86719 4.5V3.25H3.75V5.67969C3.75112 5.91197 3.76415 6.14405 3.78906 6.375H3.74219ZM18.125 4.5C18.1229 4.99665 17.9247 5.47237 17.5736 5.82355C17.2224 6.17474 16.7466 6.37294 16.25 6.375H16.2188C16.241 6.16743 16.2515 5.95876 16.25 5.75V3.25H18.125V4.5Z" fill="url(#paint0_linear_236_236)"/>
<defs>
<linearGradient id="paint0_linear_236_236" x1="9.99609" y1="0.125" x2="9.99609" y2="15.125" gradientUnits="userSpaceOnUse">
<stop stop-color="#F0D542"/>
<stop offset="1" stop-color="#A78E0B"/>
</linearGradient>
</defs>
</svg>
