<svg width="25" height="25" viewBox="0 0 25 25" fill="none" xmlns="http://www.w3.org/2000/svg">
<path d="M22.6562 8.20312V12.1094C22.6562 12.3166 22.5739 12.5153 22.4274 12.6618C22.2809 12.8083 22.0822 12.8906 21.875 12.8906C20.243 12.8949 18.6344 12.5028 17.1875 11.748V15.2344C17.1877 16.6463 16.7851 18.0291 16.0269 19.2203C15.2688 20.4115 14.1866 21.3617 12.9074 21.9594C11.6282 22.5571 10.205 22.7775 8.80492 22.5947C7.40482 22.412 6.08591 21.8336 5.00299 20.9275C3.92007 20.0215 3.11808 18.8253 2.69115 17.4794C2.26422 16.1335 2.23007 14.6938 2.5927 13.3292C2.95533 11.9645 3.6997 10.7317 4.73844 9.77529C5.77717 8.81889 7.06718 8.17864 8.45703 7.92969C8.56855 7.90968 8.68308 7.91416 8.79269 7.94283C8.9023 7.9715 9.00436 8.02366 9.0918 8.0957C9.18193 8.16845 9.25428 8.2608 9.30336 8.36571C9.35243 8.47063 9.37694 8.58536 9.375 8.70117V12.7637C9.37542 12.9116 9.33329 13.0565 9.25365 13.1812C9.174 13.3059 9.06019 13.405 8.92578 13.4668C8.6105 13.617 8.34124 13.8489 8.14606 14.1385C7.95087 14.4281 7.8369 14.7647 7.816 15.1133C7.79511 15.4619 7.86806 15.8097 8.02725 16.1205C8.18645 16.4313 8.42607 16.6938 8.72116 16.8805C9.01624 17.0673 9.356 17.1715 9.70505 17.1823C10.0541 17.1931 10.3997 17.1102 10.7058 16.9421C11.0119 16.774 11.2673 16.5269 11.4455 16.2266C11.6236 15.9262 11.718 15.5836 11.7188 15.2344V2.73438C11.7188 2.52717 11.8011 2.32846 11.9476 2.18195C12.0941 2.03543 12.2928 1.95313 12.5 1.95312H16.4062C16.6135 1.95313 16.8122 2.03543 16.9587 2.18195C17.1052 2.32846 17.1875 2.52717 17.1875 2.73438C17.1875 3.97758 17.6814 5.16986 18.5604 6.04894C19.4395 6.92801 20.6318 7.42188 21.875 7.42188C22.0822 7.42188 22.2809 7.50419 22.4274 7.6507C22.5739 7.79721 22.6562 7.99592 22.6562 8.20312Z" fill="white"/>
</svg>
