<svg width="25" height="25" viewBox="0 0 25 25" fill="none" xmlns="http://www.w3.org/2000/svg">
<path d="M23.9941 7.58789L21.0449 10.5273C20.459 17.3535 14.6973 22.6562 7.8125 22.6562C6.39649 22.6562 5.22461 22.4316 4.33594 21.9922C3.62305 21.6309 3.33008 21.25 3.25195 21.1328C3.18731 21.0346 3.14566 20.9231 3.1301 20.8066C3.11454 20.6901 3.12547 20.5716 3.16208 20.4599C3.19869 20.3482 3.26003 20.2462 3.34153 20.1615C3.42304 20.0768 3.5226 20.0116 3.63281 19.9707C3.65234 19.9609 5.95703 19.082 7.45117 17.3926C6.52455 16.7328 5.71011 15.9283 5.03906 15.0098C3.70117 13.1934 2.28516 10.0391 3.13477 5.33203C3.16147 5.1921 3.22548 5.06197 3.32002 4.9554C3.41456 4.84883 3.53612 4.76977 3.67188 4.72656C3.80806 4.68197 3.95389 4.67569 4.0934 4.70842C4.23291 4.74114 4.36074 4.81161 4.46289 4.91211C4.49219 4.95117 7.74414 8.1543 11.7188 9.18945V8.59375C11.7226 7.97433 11.8484 7.36173 12.089 6.79093C12.3296 6.22012 12.6802 5.7023 13.121 5.26703C13.5617 4.83175 14.0838 4.48754 14.6576 4.25406C15.2313 4.02058 15.8454 3.90239 16.4648 3.90625C17.2778 3.91784 18.0739 4.13983 18.7756 4.55057C19.4773 4.96131 20.0606 5.5468 20.4688 6.25H23.4375C23.5917 6.24952 23.7427 6.2947 23.8713 6.37986C23.9999 6.46501 24.1004 6.58633 24.1602 6.72852C24.2164 6.87282 24.2307 7.03011 24.2013 7.1822C24.172 7.33428 24.1001 7.47493 23.9941 7.58789V7.58789Z" fill="white"/>
</svg>
